<mxfile host="65bd71144e">
    <diagram id="SDRCU_xUri1sC5xHmcf4" name="Page-1">
        <mxGraphModel dx="-284" dy="1691" grid="1" gridSize="10" guides="1" tooltips="1" connect="1" arrows="1" fold="1" page="1" pageScale="1" pageWidth="850" pageHeight="1100" math="0" shadow="0">
            <root>
                <mxCell id="0"/>
                <mxCell id="1" parent="0"/>
                <mxCell id="2" value="Система планирования" style="rounded=0;whiteSpace=wrap;html=1;fontSize=14;verticalAlign=top;dashed=1;" vertex="1" parent="1">
                    <mxGeometry x="1030" y="-470" width="530" height="350" as="geometry"/>
                </mxCell>
                <mxCell id="3" value="Глобальный планировщик" style="rounded=1;whiteSpace=wrap;html=1;fontSize=14;verticalAlign=middle;fillColor=#d5e8d4;strokeColor=#82b366;" vertex="1" parent="1">
                    <mxGeometry x="1070" y="-390" width="120" height="60" as="geometry"/>
                </mxCell>
                <mxCell id="4" value="Локальная карта стоимостей" style="rounded=1;whiteSpace=wrap;html=1;fontSize=14;verticalAlign=middle;fillColor=#d5e8d4;strokeColor=#82b366;" vertex="1" parent="1">
                    <mxGeometry x="1350" y="-240" width="180" height="60" as="geometry"/>
                </mxCell>
                <mxCell id="5" value="Команды движения" style="edgeStyle=orthogonalEdgeStyle;rounded=0;orthogonalLoop=1;jettySize=auto;html=1;exitX=0.5;exitY=1;exitDx=0;exitDy=0;fontSize=14;startArrow=none;startFill=0;endArrow=classic;endFill=1;strokeWidth=1;" edge="1" parent="1" source="6" target="17">
                    <mxGeometry relative="1" as="geometry"/>
                </mxCell>
                <mxCell id="6" value="Локальный &lt;br style=&quot;font-size: 14px;&quot;&gt;планировщик" style="rounded=1;whiteSpace=wrap;html=1;fontSize=14;verticalAlign=middle;fillColor=#d5e8d4;strokeColor=#82b366;" vertex="1" parent="1">
                    <mxGeometry x="1070" y="-240" width="120" height="60" as="geometry"/>
                </mxCell>
                <mxCell id="7" style="edgeStyle=orthogonalEdgeStyle;rounded=0;orthogonalLoop=1;jettySize=auto;html=1;exitX=0;exitY=0.5;exitDx=0;exitDy=0;startArrow=none;startFill=0;endArrow=classic;endFill=1;strokeWidth=1;fontSize=14;" edge="1" parent="1" source="8" target="3">
                    <mxGeometry relative="1" as="geometry"/>
                </mxCell>
                <mxCell id="8" value="Глобальная карта стоимостей" style="rounded=1;whiteSpace=wrap;html=1;fontSize=14;verticalAlign=middle;fillColor=#d5e8d4;strokeColor=#82b366;" vertex="1" parent="1">
                    <mxGeometry x="1350" y="-390" width="180" height="60" as="geometry"/>
                </mxCell>
                <mxCell id="9" style="edgeStyle=orthogonalEdgeStyle;rounded=0;orthogonalLoop=1;jettySize=auto;html=1;startArrow=none;startFill=0;endArrow=classic;endFill=1;strokeWidth=1;fontSize=14;" edge="1" parent="1" source="4" target="6">
                    <mxGeometry relative="1" as="geometry">
                        <mxPoint x="1360" y="-350" as="sourcePoint"/>
                        <mxPoint x="1200" y="-350" as="targetPoint"/>
                    </mxGeometry>
                </mxCell>
                <mxCell id="10" style="edgeStyle=orthogonalEdgeStyle;rounded=0;orthogonalLoop=1;jettySize=auto;html=1;startArrow=none;startFill=0;endArrow=classic;endFill=1;strokeWidth=1;fontSize=14;" edge="1" parent="1" source="3" target="6">
                    <mxGeometry relative="1" as="geometry">
                        <mxPoint x="1360" y="-200" as="sourcePoint"/>
                        <mxPoint x="1200" y="-200" as="targetPoint"/>
                    </mxGeometry>
                </mxCell>
                <mxCell id="11" style="edgeStyle=orthogonalEdgeStyle;rounded=0;orthogonalLoop=1;jettySize=auto;html=1;startArrow=none;startFill=0;endArrow=classic;endFill=1;strokeWidth=1;fontSize=14;" edge="1" parent="1" source="12" target="8">
                    <mxGeometry relative="1" as="geometry">
                        <mxPoint x="1730" y="-340" as="sourcePoint"/>
                        <mxPoint x="1730" y="-250" as="targetPoint"/>
                    </mxGeometry>
                </mxCell>
                <mxCell id="12" value="Модули восприятия информации" style="rounded=1;whiteSpace=wrap;html=1;fontSize=14;verticalAlign=middle;fillColor=#e1d5e7;strokeColor=#9673a6;" vertex="1" parent="1">
                    <mxGeometry x="1600" y="-320" width="180" height="60" as="geometry"/>
                </mxCell>
                <mxCell id="13" style="edgeStyle=orthogonalEdgeStyle;rounded=0;orthogonalLoop=1;jettySize=auto;html=1;startArrow=none;startFill=0;endArrow=classic;endFill=1;strokeWidth=1;fontSize=14;" edge="1" parent="1" source="12" target="4">
                    <mxGeometry relative="1" as="geometry">
                        <mxPoint x="1660" y="-350" as="sourcePoint"/>
                        <mxPoint x="1540" y="-350" as="targetPoint"/>
                    </mxGeometry>
                </mxCell>
                <mxCell id="14" value="Система построения карты" style="rounded=1;whiteSpace=wrap;html=1;fontSize=14;verticalAlign=middle;fillColor=#e1d5e7;strokeColor=#9673a6;" vertex="1" parent="1">
                    <mxGeometry x="1600" y="-460" width="180" height="60" as="geometry"/>
                </mxCell>
                <mxCell id="15" style="edgeStyle=orthogonalEdgeStyle;rounded=0;orthogonalLoop=1;jettySize=auto;html=1;startArrow=none;startFill=0;endArrow=classic;endFill=1;strokeWidth=1;fontSize=14;" edge="1" parent="1" source="12" target="14">
                    <mxGeometry relative="1" as="geometry">
                        <mxPoint x="1360" y="-350" as="sourcePoint"/>
                        <mxPoint x="1200" y="-350" as="targetPoint"/>
                    </mxGeometry>
                </mxCell>
                <mxCell id="16" value="Карта" style="edgeStyle=orthogonalEdgeStyle;rounded=0;orthogonalLoop=1;jettySize=auto;html=1;startArrow=none;startFill=0;endArrow=classic;endFill=1;strokeWidth=1;fontSize=14;" edge="1" parent="1" source="14" target="8">
                    <mxGeometry relative="1" as="geometry">
                        <mxPoint x="1700" y="-310" as="sourcePoint"/>
                        <mxPoint x="1700" y="-390" as="targetPoint"/>
                    </mxGeometry>
                </mxCell>
                <mxCell id="17" value="Транспортное средство" style="rounded=1;whiteSpace=wrap;html=1;fontSize=14;verticalAlign=middle;fillColor=#e1d5e7;strokeColor=#9673a6;" vertex="1" parent="1">
                    <mxGeometry x="1040" y="-90" width="180" height="60" as="geometry"/>
                </mxCell>
            </root>
        </mxGraphModel>
    </diagram>
</mxfile>